# xmcd
#
# Track frame offsets:
#	150
#	21985
#	39522
#	52777
#	72372
#	86150
#	99117
#	114700
#	128342
#	142883
#	161522
#	182112
#	196803
#	211143
#
# Disc length: 2998 seconds
#
# Revision: 1
# Processed by: cddbd v1.5.2PL0 Copyright (c) Steve Scherf et al.
# Submitted via: audiograbber 1.83.01
#
DISCID=b20bb40e
DTITLE=STAR DISK - SD 117
DYEAR=1900
DGENRE=KARAOKR
TTITLE0=Kenny Chesney  - When The Sun Goes Down 
TTITLE1=Lonestar  - Let's Be Us Again 
TTITLE2=Brooks  and Dunn - That's What She Gets For Loving Me 
TTITLE3=John M  Montgomery - Letters From Home 
TTITLE4=Lee Ann Womack  - The Wrong Girl
TTITLE5=Montgomery Gentry  - If You Ever Stop Loving Me
TTITLE6=SheDaisy - Passenger Seat 
TTITLE7=Amy Dalley  - Men Don't Change
TTITLE8=Andy Griggs  - She Thinks She Needs Me
TTITLE9=Sherrie Austin  - Driving Into The Sun 
TTITLE10=Cross Canadian Ragweed - Sick And Tired 
TTITLE11=Hank Williams Jr  - Why Can't We All Just Get A Longneck 
TTITLE12=Joe Diffie  - Tougher Than Nails 
TTITLE13=Chris Ladoux - Horsepower
EXTD=
EXTT0=
EXTT1=
EXTT2=
EXTT3=
EXTT4=
EXTT5=
EXTT6=
EXTT7=
EXTT8=
EXTT9=
EXTT10=
EXTT11=
EXTT12=
EXTT13=
PLAYORDER=
